<svg width="67" height="67" viewBox="0 0 67 67" fill="none" xmlns="http://www.w3.org/2000/svg">
<path fill-rule="evenodd" clip-rule="evenodd" d="M33.4999 67C51.9397 67 66.8881 52.0015 66.8881 33.5C66.8881 14.9985 51.9397 0 33.4999 0C15.0602 0 0.111816 14.9985 0.111816 33.5C0.111816 52.0015 15.0602 67 33.4999 67Z" fill="#0284C7"/>
<mask id="mask0_451_829" style="mask-type:luminance" maskUnits="userSpaceOnUse" x="0" y="0" width="67" height="67">
<path fill-rule="evenodd" clip-rule="evenodd" d="M33.4999 67C51.9397 67 66.8881 52.0015 66.8881 33.5C66.8881 14.9985 51.9397 0 33.4999 0C15.0602 0 0.111816 14.9985 0.111816 33.5C0.111816 52.0015 15.0602 67 33.4999 67Z" fill="white"/>
</mask>
<g mask="url(#mask0_451_829)">
<rect x="0.111816" width="66.7763" height="67" fill="#F9FAFB"/>
</g>
<path d="M36.1575 40.8427C36.1575 38.4161 37.9421 36.4493 40.1441 36.4493C42.3461 36.4493 44.1307 38.4161 44.1307 40.8427C44.1307 43.2693 42.3461 45.2361 40.1441 45.2361C37.9421 45.2361 36.1575 43.2693 36.1575 40.8427ZM42.1374 21.8044H38.1508C36.8219 21.8044 36.1575 22.5367 36.1575 24.0012V28.3946C36.1575 29.8591 36.8219 30.5913 38.1508 30.5913H42.1374C43.4663 30.5913 44.1307 29.8591 44.1307 28.3946V24.0012C44.1307 22.5367 43.4663 21.8044 42.1374 21.8044ZM28.8486 21.8044H24.862C23.5331 21.8044 22.8687 22.5367 22.8687 24.0012V28.3946C22.8687 29.8591 23.5331 30.5913 24.862 30.5913H28.8486C30.1775 30.5913 30.8419 29.8591 30.8419 28.3946V24.0012C30.8419 22.5367 30.1775 21.8044 28.8486 21.8044ZM28.8486 36.4493H24.862C23.5331 36.4493 22.8687 37.1815 22.8687 38.646V43.0394C22.8687 44.5039 23.5331 45.2361 24.862 45.2361H28.8486C30.1775 45.2361 30.8419 44.5039 30.8419 43.0394V38.646C30.8419 37.1815 30.1775 36.4493 28.8486 36.4493Z" fill="#0284C7"/>
</svg>
