<svg width="68" height="67" viewBox="0 0 68 67" fill="none" xmlns="http://www.w3.org/2000/svg">
<path fill-rule="evenodd" clip-rule="evenodd" d="M33.9999 67C52.4397 67 67.3881 52.0015 67.3881 33.5C67.3881 14.9985 52.4397 0 33.9999 0C15.5602 0 0.611816 14.9985 0.611816 33.5C0.611816 52.0015 15.5602 67 33.9999 67Z" fill="#0284C7"/>
<mask id="mask0_453_907" style="mask-type:luminance" maskUnits="userSpaceOnUse" x="0" y="0" width="68" height="67">
<path fill-rule="evenodd" clip-rule="evenodd" d="M33.9999 67C52.4397 67 67.3881 52.0015 67.3881 33.5C67.3881 14.9985 52.4397 0 33.9999 0C15.5602 0 0.611816 14.9985 0.611816 33.5C0.611816 52.0015 15.5602 67 33.9999 67Z" fill="white"/>
</mask>
<g mask="url(#mask0_453_907)">
<rect x="0.611816" width="66.7763" height="67" fill="#22D3EE"/>
<path d="M46.5825 32.7986L42.9739 31.6625C39.655 30.6169 37.1064 27.8096 36.1576 24.1507L35.1267 20.1738C34.964 19.5482 34.0165 19.5482 33.8537 20.1738L32.8229 24.1507C31.874 27.8096 29.3254 30.6184 26.0065 31.6625L22.3978 32.7986C22.1133 32.8876 21.9175 33.1749 21.9175 33.5001C21.9175 33.8253 22.1133 34.1111 22.3978 34.2015L26.0065 35.3376C29.3254 36.3832 31.874 39.1905 32.8229 42.8495L33.8537 46.8263C33.9357 47.1399 34.1951 47.3557 34.4902 47.3557C34.7853 47.3557 35.0447 47.1399 35.1267 46.8263L36.1576 42.8495C37.1064 39.1905 39.655 36.3817 42.9739 35.3376L46.5825 34.2015C46.867 34.1125 47.0629 33.8253 47.0629 33.5001C47.0629 33.1749 46.867 32.889 46.5825 32.7986Z" fill="white"/>
</g>
</svg>
