<svg width="68" height="67" viewBox="0 0 68 67" fill="none" xmlns="http://www.w3.org/2000/svg">
<path fill-rule="evenodd" clip-rule="evenodd" d="M34.2499 67C52.6897 67 67.6381 52.0015 67.6381 33.5C67.6381 14.9985 52.6897 0 34.2499 0C15.8102 0 0.861816 14.9985 0.861816 33.5C0.861816 52.0015 15.8102 67 34.2499 67Z" fill="#0284C7"/>
<mask id="mask0_453_927" style="mask-type:luminance" maskUnits="userSpaceOnUse" x="0" y="0" width="68" height="67">
<path fill-rule="evenodd" clip-rule="evenodd" d="M34.2499 67C52.6897 67 67.6381 52.0015 67.6381 33.5C67.6381 14.9985 52.6897 0 34.2499 0C15.8102 0 0.861816 14.9985 0.861816 33.5C0.861816 52.0015 15.8102 67 34.2499 67Z" fill="white"/>
</mask>
<g mask="url(#mask0_453_927)">
<rect x="0.861816" width="66.7763" height="67" fill="white"/>
<path d="M34.0797 45.2543V34.5938H21.8391C21.6539 34.5938 21.5083 34.7542 21.5083 34.9584C21.5083 37.8751 22.8316 39.3334 25.4782 39.3334H30.7714V44.073H27.4632C26.9206 44.073 26.4707 44.5688 26.4707 45.1667C26.4707 45.7647 26.9206 46.2605 27.4632 46.2605H34.1459C34.1062 45.9397 34.0797 45.6043 34.0797 45.2543ZM41.3578 18.9167H25.4782C22.8316 18.9167 21.5083 20.3751 21.5083 23.2917V32.0417C21.5083 32.2459 21.6539 32.4063 21.8391 32.4063H34.1459C34.49 29.9126 36.1307 28.3959 38.6185 28.3959C38.6185 28.3959 44.5734 28.3959 44.9307 28.3959C45.2086 28.3959 45.3277 28.1333 45.3277 27.9583C45.3277 27.7833 45.3277 23.2917 45.3277 23.2917C45.3277 20.3751 44.0044 18.9167 41.3578 18.9167ZM45.4218 30.5834H38.6159C36.9142 30.5834 36.0633 31.5268 36.0633 33.4153V45.2515C36.0633 47.14 36.9142 48.0834 38.6159 48.0834H45.4218C47.1235 48.0834 47.9743 47.14 47.9743 45.2515V33.4153C47.9743 31.5268 47.1235 30.5834 45.4218 30.5834ZM42.0195 45.8959C41.289 45.8959 40.6962 45.2426 40.6962 44.4376C40.6962 43.6326 41.289 42.9792 42.0195 42.9792C42.75 42.9792 43.3428 43.6326 43.3428 44.4376C43.3428 45.2426 42.75 45.8959 42.0195 45.8959Z" fill="#0284C7"/>
</g>
</svg>
