<svg width="68" height="67" viewBox="0 0 68 67" fill="none" xmlns="http://www.w3.org/2000/svg">
<path fill-rule="evenodd" clip-rule="evenodd" d="M33.7499 67C52.1897 67 67.1381 52.0015 67.1381 33.5C67.1381 14.9985 52.1897 0 33.7499 0C15.3102 0 0.361816 14.9985 0.361816 33.5C0.361816 52.0015 15.3102 67 33.7499 67Z" fill="#0284C7"/>
<mask id="mask0_453_1166" style="mask-type:luminance" maskUnits="userSpaceOnUse" x="0" y="0" width="68" height="67">
<path fill-rule="evenodd" clip-rule="evenodd" d="M33.7499 67C52.1897 67 67.1381 52.0015 67.1381 33.5C67.1381 14.9985 52.1897 0 33.7499 0C15.3102 0 0.361816 14.9985 0.361816 33.5C0.361816 52.0015 15.3102 67 33.7499 67Z" fill="white"/>
</mask>
<g mask="url(#mask0_453_1166)">
<rect x="0.361816" width="66.7763" height="67" fill="#22D3EE"/>
</g>
<path d="M41.2249 20.3401H26.275C23.285 20.3401 21.79 21.9876 21.79 25.2827V41.7581C21.79 45.0532 23.285 46.7007 26.275 46.7007H41.2249C44.2149 46.7007 45.7099 45.0532 45.7099 41.7581V25.2827C45.7099 21.9876 44.2149 20.3401 41.2249 20.3401ZM29.4311 40.8428C29.4311 41.4491 28.9846 41.9412 28.4344 41.9412C27.8843 41.9412 27.4378 41.4491 27.4378 40.8428V38.6461C27.4378 38.0398 27.8843 37.5477 28.4344 37.5477C28.9846 37.5477 29.4311 38.0398 29.4311 38.6461V40.8428ZM34.7466 40.8428C34.7466 41.4491 34.3001 41.9412 33.75 41.9412C33.1998 41.9412 32.7533 41.4491 32.7533 40.8428V36.4494C32.7533 35.8431 33.1998 35.351 33.75 35.351C34.3001 35.351 34.7466 35.8431 34.7466 36.4494V40.8428ZM40.0621 40.8428C40.0621 41.4491 39.6156 41.9412 39.0655 41.9412C38.5153 41.9412 38.0688 41.4491 38.0688 40.8428V33.5204C38.0688 32.9141 38.5153 32.4221 39.0655 32.4221C39.6156 32.4221 40.0621 32.9141 40.0621 33.5204V40.8428ZM40.0621 29.4198C40.0621 30.0261 39.6156 30.5182 39.0655 30.5182C38.5153 30.5182 38.0688 30.0261 38.0688 29.4198V28.8488L35.6782 31.4832C34.926 32.3135 33.6104 32.3121 32.8583 31.4832L31.1586 29.6104L29.1388 31.8364C28.9448 32.0502 28.6896 32.1585 28.4344 32.1585C28.1793 32.1585 27.9241 32.0517 27.7301 31.8364C27.3407 31.4073 27.3407 30.7116 27.7301 30.2825L29.75 28.0565C30.5274 27.1998 31.7925 27.2012 32.5699 28.0565L34.2695 29.9296L36.6602 27.2949H36.1419C35.5918 27.2949 35.1453 26.8029 35.1453 26.1966C35.1453 25.5903 35.5918 25.0982 36.1419 25.0982H39.0655C39.1957 25.0982 39.3246 25.1273 39.4469 25.183C39.69 25.2943 39.8841 25.5081 39.9851 25.7775C40.0356 25.9123 40.0621 26.0545 40.0621 26.198V29.4198Z" fill="white"/>
</svg>
