<svg width="67" height="67" viewBox="0 0 67 67" fill="none" xmlns="http://www.w3.org/2000/svg">
<path fill-rule="evenodd" clip-rule="evenodd" d="M33.4999 67C51.9397 67 66.8881 52.0015 66.8881 33.5C66.8881 14.9985 51.9397 0 33.4999 0C15.0602 0 0.111816 14.9985 0.111816 33.5C0.111816 52.0015 15.0602 67 33.4999 67Z" fill="#0284C7"/>
<mask id="mask0_453_917" style="mask-type:luminance" maskUnits="userSpaceOnUse" x="0" y="0" width="67" height="67">
<path fill-rule="evenodd" clip-rule="evenodd" d="M33.4999 67C51.9397 67 66.8881 52.0015 66.8881 33.5C66.8881 14.9985 51.9397 0 33.4999 0C15.0602 0 0.111816 14.9985 0.111816 33.5C0.111816 52.0015 15.0602 67 33.4999 67Z" fill="white"/>
</mask>
<g mask="url(#mask0_453_917)">
<rect x="0.111816" width="66.7763" height="67" fill="#22D3EE"/>
</g>
<path d="M40.9749 20.3401H26.025C23.035 20.3401 21.54 21.9876 21.54 25.2827V41.7581C21.54 45.0532 23.035 46.7007 26.025 46.7007H40.9749C43.9649 46.7007 45.4599 45.0532 45.4599 41.7581V25.2827C45.4599 21.9876 43.9649 20.3401 40.9749 20.3401ZM29.1811 40.8428C29.1811 41.4491 28.7346 41.9412 28.1844 41.9412C27.6343 41.9412 27.1878 41.4491 27.1878 40.8428V38.6461C27.1878 38.0398 27.6343 37.5477 28.1844 37.5477C28.7346 37.5477 29.1811 38.0398 29.1811 38.6461V40.8428ZM34.4966 40.8428C34.4966 41.4491 34.0501 41.9412 33.5 41.9412C32.9498 41.9412 32.5033 41.4491 32.5033 40.8428V36.4494C32.5033 35.8431 32.9498 35.351 33.5 35.351C34.0501 35.351 34.4966 35.8431 34.4966 36.4494V40.8428ZM39.8121 40.8428C39.8121 41.4491 39.3656 41.9412 38.8155 41.9412C38.2653 41.9412 37.8188 41.4491 37.8188 40.8428V33.5204C37.8188 32.9141 38.2653 32.4221 38.8155 32.4221C39.3656 32.4221 39.8121 32.9141 39.8121 33.5204V40.8428ZM39.8121 29.4198C39.8121 30.0261 39.3656 30.5182 38.8155 30.5182C38.2653 30.5182 37.8188 30.0261 37.8188 29.4198V28.8488L35.4282 31.4832C34.676 32.3135 33.3604 32.3121 32.6083 31.4832L30.9086 29.6104L28.8888 31.8364C28.6948 32.0502 28.4396 32.1585 28.1844 32.1585C27.9293 32.1585 27.6741 32.0517 27.4801 31.8364C27.0907 31.4073 27.0907 30.7116 27.4801 30.2825L29.5 28.0565C30.2774 27.1998 31.5425 27.2012 32.3199 28.0565L34.0195 29.9296L36.4102 27.2949H35.8919C35.3418 27.2949 34.8953 26.8029 34.8953 26.1966C34.8953 25.5903 35.3418 25.0982 35.8919 25.0982H38.8155C38.9457 25.0982 39.0746 25.1273 39.1969 25.183C39.44 25.2943 39.6341 25.5081 39.7351 25.7775C39.7856 25.9123 39.8121 26.0545 39.8121 26.198V29.4198Z" fill="white"/>
</svg>
