<svg width="25" height="25" viewBox="0 0 25 25" fill="none" xmlns="http://www.w3.org/2000/svg">
<path d="M21.8999 13.4903L14.9009 20.4893C14.7059 20.6843 14.4498 20.7823 14.1938 20.7823C13.9378 20.7823 13.6818 20.6843 13.4868 20.4893C13.0958 20.0983 13.0958 19.4662 13.4868 19.0752L18.7798 13.7823H3.19385C2.64085 13.7823 2.19385 13.3343 2.19385 12.7823C2.19385 12.2303 2.64085 11.7823 3.19385 11.7823H18.7798L13.4868 6.48929C13.0958 6.09829 13.0958 5.46623 13.4868 5.07523C13.8778 4.68423 14.5099 4.68423 14.9009 5.07523L21.8999 12.0743C21.9929 12.1673 22.0659 12.2772 22.1169 12.4002C22.2179 12.6442 22.2179 12.9203 22.1169 13.1643C22.0659 13.2873 21.9929 13.3973 21.8999 13.4903Z" fill="#FFFFFF"/>
</svg>
