<svg width="25" height="26" viewBox="0 0 25 26" fill="none" xmlns="http://www.w3.org/2000/svg">
<path fill-rule="evenodd" clip-rule="evenodd" d="M12.4999 2.58337C6.74679 2.58337 2.08325 7.24692 2.08325 13C2.08325 18.7532 6.74679 23.4167 12.4999 23.4167C18.253 23.4167 22.9166 18.7532 22.9166 13C22.9166 7.24692 18.253 2.58337 12.4999 2.58337ZM16.177 16.6772C16.0249 16.8292 15.8249 16.9063 15.6249 16.9063C15.4249 16.9063 15.2249 16.8303 15.0728 16.6772L11.9478 13.5522C11.8009 13.4053 11.7187 13.2063 11.7187 13V7.79171C11.7187 7.36046 12.0687 7.01046 12.4999 7.01046C12.9312 7.01046 13.2812 7.36046 13.2812 7.79171V12.676L16.177 15.5719C16.4822 15.8782 16.4822 16.3719 16.177 16.6772Z" fill="#0284C7"/>
</svg>
