<svg width="28" height="28" viewBox="0 0 28 28" fill="none" xmlns="http://www.w3.org/2000/svg">
<path d="M14.0976 3.14246C17.747 3.14246 18.1791 3.15847 19.6143 3.2225C20.9482 3.28118 21.6684 3.50527 22.1486 3.69201C22.7835 3.93743 23.2424 4.23621 23.7172 4.71106C24.1974 5.19125 24.4909 5.64475 24.7363 6.27966C24.923 6.75984 25.1471 7.48545 25.2058 8.81396C25.2698 10.2545 25.2858 10.6867 25.2858 14.3307C25.2858 17.9801 25.2698 18.4123 25.2058 19.8475C25.1471 21.1813 24.923 21.9016 24.7363 22.3818C24.4909 23.0167 24.1921 23.4755 23.7172 23.9504C23.237 24.4306 22.7835 24.724 22.1486 24.9694C21.6684 25.1562 20.9428 25.3803 19.6143 25.439C18.1738 25.503 17.7416 25.519 14.0976 25.519C10.4482 25.519 10.016 25.503 8.5808 25.439C7.24695 25.3803 6.52668 25.1562 6.0465 24.9694C5.41159 24.724 4.95275 24.4252 4.4779 23.9504C3.99771 23.4702 3.70427 23.0167 3.45884 22.3818C3.27211 21.9016 3.04802 21.176 2.98933 19.8475C2.92531 18.4069 2.9093 17.9748 2.9093 14.3307C2.9093 10.6813 2.92531 10.2492 2.98933 8.81396C3.04802 7.48012 3.27211 6.75984 3.45884 6.27966C3.70427 5.64475 4.00305 5.18591 4.4779 4.71106C4.95808 4.23088 5.41159 3.93743 6.0465 3.69201C6.52668 3.50527 7.25229 3.28118 8.5808 3.2225C10.016 3.15847 10.4482 3.14246 14.0976 3.14246ZM14.0976 0.682861C10.3895 0.682861 9.92531 0.698867 8.46875 0.762892C7.01753 0.826916 6.01982 1.06167 5.15549 1.3978C4.25381 1.74993 3.49086 2.21411 2.73323 2.97707C1.97028 3.73469 1.5061 4.49765 1.15396 5.39399C0.817837 6.26365 0.583081 7.25603 0.519056 8.70725C0.455032 10.1691 0.439026 10.6333 0.439026 14.3414C0.439026 18.0495 0.455032 18.5137 0.519056 19.9702C0.583081 21.4214 0.817837 22.4191 1.15396 23.2835C1.5061 24.1851 1.97028 24.9481 2.73323 25.7057C3.49086 26.4633 4.25381 26.9329 5.15015 27.2797C6.01982 27.6158 7.0122 27.8505 8.46342 27.9146C9.91997 27.9786 10.3841 27.9946 14.0922 27.9946C17.8003 27.9946 18.2645 27.9786 19.721 27.9146C21.1723 27.8505 22.17 27.6158 23.0343 27.2797C23.9306 26.9329 24.6936 26.4633 25.4512 25.7057C26.2088 24.9481 26.6784 24.1852 27.0252 23.2888C27.3613 22.4191 27.596 21.4268 27.6601 19.9755C27.7241 18.519 27.7401 18.0548 27.7401 14.3467C27.7401 10.6387 27.7241 10.1745 27.6601 8.71792C27.596 7.2667 27.3613 6.26899 27.0252 5.40466C26.689 4.49765 26.2249 3.73469 25.4619 2.97707C24.7043 2.21945 23.9413 1.74993 23.045 1.40314C22.1753 1.06701 21.1829 0.832252 19.7317 0.768227C18.2698 0.698867 17.8056 0.682861 14.0976 0.682861Z" fill="white"/>
<path d="M14.0975 7.32544C10.2241 7.32544 7.08154 10.468 7.08154 14.3414C7.08154 18.2149 10.2241 21.3575 14.0975 21.3575C17.971 21.3575 21.1136 18.2149 21.1136 14.3414C21.1136 10.468 17.971 7.32544 14.0975 7.32544ZM14.0975 18.8925C11.5846 18.8925 9.54648 16.8544 9.54648 14.3414C9.54648 11.8285 11.5846 9.79038 14.0975 9.79038C16.6105 9.79038 18.6486 11.8285 18.6486 14.3414C18.6486 16.8544 16.6105 18.8925 14.0975 18.8925Z" fill="white"/>
<path d="M23.029 7.04787C23.029 7.95488 22.2927 8.68583 21.391 8.68583C20.484 8.68583 19.7531 7.94955 19.7531 7.04787C19.7531 6.14086 20.4893 5.40991 21.391 5.40991C22.2927 5.40991 23.029 6.14619 23.029 7.04787Z" fill="white"/>
</svg>
