<svg width="25" height="26" viewBox="0 0 25 26" fill="none" xmlns="http://www.w3.org/2000/svg">
<path d="M20.4447 9.61658C20.1281 10.6114 19.3157 11.4187 18.3188 11.7302C16.7063 12.2343 15.1729 11.5427 14.4062 10.325C14.3458 10.2291 14.35 10.1083 14.4052 10.0094C14.8583 9.20103 15.1156 8.26767 15.1156 7.27079C15.1156 6.92496 15.0854 6.58744 15.0249 6.25723C15.0052 6.14889 15.0385 6.03639 15.1229 5.96451C15.701 5.47389 16.449 5.18746 17.2511 5.18746C19.4552 5.18746 21.1739 7.32387 20.4447 9.61658ZM18.8646 13.2917H16.8021C16.625 13.2917 16.4895 13.427 16.4895 13.6041C16.4895 13.6874 16.5209 13.7708 16.5834 13.8229C16.5938 13.8333 16.6041 13.8437 16.6145 13.8541C18.0729 15.2603 18.75 17.2708 18.75 19.2708C18.75 19.6562 18.7292 20.0312 18.6667 20.3749C18.6563 20.4207 18.6531 20.4594 18.6531 20.5011C18.6531 20.6781 18.7916 20.8125 18.9583 20.8125H20.4792C22.3855 20.8125 23.4375 19.7708 23.4375 17.875C23.4375 15.7604 22.2396 13.2917 18.8646 13.2917ZM9.38543 3.10413C7.08334 3.10413 5.21876 4.96871 5.21876 7.27079C5.21876 9.57288 7.08334 11.4375 9.38543 11.4375C11.6771 11.4375 13.5521 9.57288 13.5521 7.27079C13.5521 4.96871 11.6771 3.10413 9.38543 3.10413ZM11.4583 13.5208H7.29167C3.0625 13.5208 1.5625 16.6146 1.5625 19.2708C1.5625 21.6458 2.82292 22.8958 5.20833 22.8958H13.5417C15.9271 22.8958 17.1875 21.6458 17.1875 19.2708C17.1875 16.6146 15.6875 13.5208 11.4583 13.5208Z" fill="#0284C7"/>
</svg>
