<svg width="25" height="24" viewBox="0 0 25 24" fill="none" xmlns="http://www.w3.org/2000/svg">
<path d="M13.9503 1.78607L16.5806 7.09121C16.7783 7.49076 17.1603 7.76708 17.6032 7.83074L23.6748 8.70831C24.7881 8.86949 25.2324 10.2347 24.4265 11.0176L20.037 15.2772C19.716 15.5887 19.5696 16.037 19.6455 16.4771L20.6491 22.3065C20.8522 23.4888 19.6103 24.3909 18.5457 23.8342L13.2799 21.078C12.8844 20.8708 12.4131 20.8708 12.0189 21.078L6.75712 23.8315C5.69121 24.3895 4.44513 23.4861 4.64964 22.301L5.65337 16.4771C5.72921 16.037 5.58285 15.5887 5.26186 15.2772L0.872326 11.0176C0.0651091 10.2347 0.509257 8.86949 1.62392 8.70831L7.6957 7.83074C8.13723 7.76708 8.51918 7.49076 8.71827 7.09121L11.3485 1.78607C11.8781 0.70933 13.4167 0.70933 13.9503 1.78607Z" fill="#FFA800"/>
</svg>
