<svg width="31" height="29" viewBox="0 0 31 29" fill="none" xmlns="http://www.w3.org/2000/svg">
<path d="M2.02314 19.2414C2.50383 19.641 2.89897 20.1427 2.86049 20.484C2.83787 20.6878 2.82538 20.8951 2.82538 21.1057C2.82538 24.2076 5.27059 26.722 8.28653 26.722C8.65906 26.722 9.02252 26.6835 9.37415 26.6104C9.96632 26.4876 10.6655 26.7253 11.0845 27.1902C12.0803 28.2941 13.5003 28.9866 15.0804 28.9866C16.7494 28.9866 18.2435 28.216 19.2451 27.0021C19.6431 26.5199 20.3169 26.3193 20.9159 26.4989C21.3993 26.6438 21.9112 26.722 22.4405 26.722C25.4564 26.722 27.9016 24.2071 27.9016 21.1057C27.9016 20.7586 27.87 20.4195 27.8099 20.0906C27.7086 19.5358 27.9787 18.8445 28.4299 18.4113C29.497 17.3877 30.1663 15.9316 30.1663 14.3118C30.1663 12.5482 29.3748 10.9771 28.1377 9.94842C27.657 9.54872 27.2618 9.04707 27.3003 8.70569C27.323 8.5019 27.3354 8.29468 27.3354 8.08402C27.3354 4.98205 24.8902 2.46775 21.8743 2.46775C21.5018 2.46775 21.1383 2.50623 20.7867 2.57929C20.1946 2.70215 19.4953 2.46438 19.0763 1.99955C18.0805 0.895538 16.6606 0.203125 15.0804 0.203125C13.5003 0.203125 12.0804 0.895538 11.0845 1.99955C10.6655 2.46378 9.96632 2.70215 9.37415 2.57929C9.02258 2.50623 8.65906 2.46775 8.28653 2.46775C5.27064 2.46775 2.82538 4.98264 2.82538 8.08402C2.82538 8.38295 2.84859 8.6762 2.89329 8.96217C2.96801 9.44339 2.63 10.0367 2.13859 10.4234C0.836478 11.4488 -0.00537109 13.0606 -0.00537109 14.878C-0.00537109 16.6415 0.786094 18.2127 2.02314 19.2414ZM7.77873 15.0812C7.89986 14.8666 8.20903 14.8638 8.4921 15.1096L11.341 17.1177C11.4956 17.2117 11.6433 17.2598 11.7854 17.2598C12.0793 17.2598 12.3119 17.0481 12.5367 16.8442L21.6535 7.71831C22.2236 7.09836 22.7778 6.87984 23.1397 7.11761C23.3067 7.22743 23.4148 7.39274 23.4437 7.58356C23.4782 7.81002 23.399 8.05401 23.2206 8.27029L12.2587 21.5863C12.0996 21.7793 11.897 21.8858 11.6886 21.8858C11.4412 21.8858 11.217 21.7368 11.0726 21.4776L7.85516 15.6772C7.72212 15.4605 7.69264 15.2353 7.77873 15.0812Z" fill="white"/>
</svg>
