<svg width="29" height="23" viewBox="0 0 29 23" fill="none" xmlns="http://www.w3.org/2000/svg">
<path d="M9.50423 22.4391C19.81 22.4391 25.4484 13.8988 25.4484 6.4949C25.4484 6.25481 25.4431 6.00938 25.4324 5.76929C26.5293 4.97607 27.4758 3.99356 28.2276 2.86791C27.2061 3.3224 26.1215 3.61923 25.0109 3.74825C26.1803 3.04731 27.0559 1.94616 27.4753 0.648936C26.3752 1.30089 25.1722 1.76079 23.9177 2.00892C23.0725 1.11082 21.9549 0.516163 20.7378 0.316901C19.5207 0.11764 18.2719 0.324868 17.1844 0.906547C16.0969 1.48823 15.2313 2.41196 14.7214 3.53492C14.2116 4.65789 14.0858 5.91754 14.3637 7.11913C12.1362 7.00735 9.95698 6.4287 7.96744 5.4207C5.9779 4.41269 4.2224 2.99783 2.81474 1.26784C2.0993 2.50135 1.88037 3.96099 2.20246 5.35012C2.52454 6.73924 3.36347 7.95361 4.54874 8.74642C3.65891 8.71817 2.78857 8.47859 2.00964 8.04749V8.11685C2.00884 9.41132 2.45636 10.6661 3.27611 11.668C4.09586 12.6698 5.23726 13.3568 6.50628 13.6123C5.682 13.8378 4.81687 13.8707 3.97785 13.7083C4.33595 14.8216 5.03267 15.7953 5.97078 16.4935C6.90889 17.1917 8.04158 17.5796 9.21078 17.6031C7.22583 19.1623 4.77384 20.008 2.24973 20.004C1.8021 20.0034 1.35491 19.9759 0.910553 19.9219C3.47478 21.567 6.45766 22.4407 9.50423 22.4391Z" fill="white"/>
</svg>
