<svg width="55" height="60" viewBox="0 0 55 60" fill="none" xmlns="http://www.w3.org/2000/svg">
<path d="M19.3304 29.8172H12.573C10.3206 29.8172 9.19434 28.5761 9.19434 26.0937V13.6822C9.19434 11.1999 10.3206 9.95874 12.573 9.95874H19.3304C21.5829 9.95874 22.7091 11.1999 22.7091 13.6822V26.0937C22.7091 28.5761 21.5829 29.8172 19.3304 29.8172ZM22.7091 45.9522V43.4699C22.7091 40.9876 21.5829 39.7464 19.3304 39.7464H12.573C10.3206 39.7464 9.19434 40.9876 9.19434 43.4699V45.9522C9.19434 48.4345 10.3206 49.6757 12.573 49.6757H19.3304C21.5829 49.6757 22.7091 48.4345 22.7091 45.9522ZM31.719 33.5407V45.9522C31.719 48.4345 32.8452 49.6757 35.0977 49.6757H41.8551C44.1076 49.6757 45.2338 48.4345 45.2338 45.9522V33.5407C45.2338 31.0584 44.1076 29.8172 41.8551 29.8172H35.0977C32.8452 29.8172 31.719 31.0584 31.719 33.5407ZM31.719 13.6822V16.1645C31.719 18.6468 32.8452 19.888 35.0977 19.888H41.8551C44.1076 19.888 45.2338 18.6468 45.2338 16.1645V13.6822C45.2338 11.1999 44.1076 9.95874 41.8551 9.95874H35.0977C32.8452 9.95874 31.719 11.1999 31.719 13.6822Z" fill="#0284C7"/>
</svg>
