<svg width="55" height="60" viewBox="0 0 55 60" fill="none" xmlns="http://www.w3.org/2000/svg">
<path d="M20.5052 55.261C18.9533 55.261 17.6783 53.8709 17.6783 52.1581C17.6783 50.4453 18.9285 49.0552 20.4827 49.0552H20.5052C22.0594 49.0552 23.3208 50.4453 23.3208 52.1581C23.3208 53.8709 22.0594 55.261 20.5052 55.261ZM41.3405 52.1581C41.3405 50.4453 40.0791 49.0552 38.5249 49.0552H38.5024C36.9482 49.0552 35.6981 50.4453 35.6981 52.1581C35.6981 53.8709 36.9707 55.261 38.5249 55.261C40.0791 55.261 41.3405 53.8709 41.3405 52.1581ZM29.47 34.1614C28.5465 34.1614 27.7806 33.3174 27.7806 32.2996C27.7806 31.2819 28.5465 30.4379 29.47 30.4379H45.3904C45.7215 30.4379 46.0031 30.1723 46.0572 29.8124L47.3973 20.7792C47.9154 17.726 45.7756 14.921 42.9826 14.921H15.8202L15.3494 11.4805C14.9125 8.07975 12.3311 5.6123 9.21593 5.6123H8.63027C7.69775 5.6123 6.94092 6.44636 6.94092 7.47404C6.94092 8.50171 7.69775 9.33577 8.63027 9.33577H9.19338C10.6057 9.33577 11.804 10.4801 12.0068 12.0216L15.3877 37.9568C15.703 40.4143 17.595 42.2264 19.8475 42.2264H38.4754C43.2056 42.2264 44.5345 39.6448 45.1201 36.1199L45.2801 35.0401C45.2801 35.0401 45.4266 34.1589 44.6675 34.1589C43.9602 34.1613 29.47 34.1614 29.47 34.1614Z" fill="#0284C7"/>
</svg>
