<svg width="55" height="60" viewBox="0 0 55 60" fill="none" xmlns="http://www.w3.org/2000/svg">
<path d="M9.19438 31.0586C9.19438 32.8334 9.56591 34.544 10.3025 36.1426C10.8633 37.3664 10.4197 38.8582 9.31152 39.4788C8.98266 39.66 8.63566 39.7467 8.29554 39.7467C7.47339 39.7467 6.68065 39.25 6.28422 38.3861C5.24132 36.1173 4.68945 33.5831 4.68945 31.0586C4.68945 21.5588 10.7103 14.9236 19.3305 14.9236H33.0391L32.3789 14.1963C31.4982 13.2257 31.4982 11.6568 32.3789 10.6862C33.2597 9.71561 34.6834 9.71561 35.5641 10.6862L40.0668 15.6484C40.2763 15.8792 40.4405 16.1521 40.5554 16.4574C40.7829 17.0631 40.7829 17.7486 40.5554 18.3543C40.4405 18.6596 40.2763 18.9325 40.0668 19.1634L35.5641 24.1256C35.1248 24.6096 34.5481 24.8528 33.9715 24.8528C33.3949 24.8528 32.8182 24.6096 32.3789 24.1256C31.4982 23.155 31.4982 21.586 32.3789 20.6154L33.0391 19.8882H19.3305C13.1745 19.8882 9.19438 24.2744 9.19438 31.0586ZM48.144 23.731C47.5831 22.5073 46.2339 22.0153 45.1167 22.6384C44.0085 23.2589 43.5649 24.7508 44.1257 25.9746C44.8623 27.5757 45.2338 29.2837 45.2338 31.0586C45.2338 37.8427 41.2537 42.229 35.0977 42.229H21.3891L22.0493 41.5017C22.93 40.5311 22.93 38.9622 22.0493 37.9916C21.1686 37.021 19.7449 37.021 18.8641 37.9916L14.3592 42.9562C13.4785 43.9268 13.4785 45.4958 14.3592 46.4663L18.8641 51.431C19.3034 51.915 19.8801 52.1582 20.4567 52.1582C21.0333 52.1582 21.61 51.915 22.0493 51.431C22.93 50.4604 22.93 48.8914 22.0493 47.9208L21.3891 47.1936H35.0977C43.7179 47.1936 49.7388 40.5584 49.7388 31.0586C49.7388 28.5341 49.1869 25.9999 48.144 23.731Z" fill="white"/>
</svg>
