<svg width="55" height="60" viewBox="0 0 55 60" fill="none" xmlns="http://www.w3.org/2000/svg">
<path d="M13.7003 42.2289V52.1581C13.7003 52.8165 13.4631 53.448 13.0407 53.9135C12.6182 54.379 12.0452 54.6404 11.4478 54.6404H6.9429C6.3455 54.6404 5.77248 54.379 5.35006 53.9135C4.92764 53.448 4.69043 52.8165 4.69043 52.1581V42.2289C4.69043 41.5705 4.92764 40.939 5.35006 40.4735C5.77248 40.008 6.3455 39.7466 6.9429 39.7466H11.4478C12.0452 39.7466 12.6182 40.008 13.0407 40.4735C13.4631 40.939 13.7003 41.5705 13.7003 42.2289ZM44.469 39.7963C43.9291 39.7975 43.3996 39.9604 42.9372 40.2678L37.8241 43.6437C37.5842 45.1576 36.8679 46.5302 35.801 47.5198C34.734 48.5095 33.3848 49.053 31.9903 49.0552H24.9626C24.5146 49.0552 24.085 48.8589 23.7682 48.5098C23.4514 48.1607 23.2733 47.6873 23.2733 47.1935C23.2733 46.6997 23.4514 46.2263 23.7682 45.8772C24.085 45.528 24.5146 45.3318 24.9626 45.3318H31.9903C32.6624 45.3318 33.307 45.0376 33.7822 44.5139C34.2574 43.9902 34.5243 43.2798 34.5243 42.5392C34.5243 41.7985 34.2574 41.0881 33.7822 40.5644C33.307 40.0407 32.6624 39.7466 31.9903 39.7466H20.4577C19.264 39.7505 18.1202 40.2748 17.2761 41.205C16.4321 42.1352 15.9563 43.3957 15.9528 44.7112V49.6758C15.9563 50.9913 16.4321 52.2518 17.2761 53.182C18.1202 54.1122 19.264 54.6365 20.4577 54.6404H33.0714C35.1195 54.6406 37.1062 53.8699 38.7026 52.456L46.361 45.7042C46.7136 45.3957 46.9983 45.0029 47.1933 44.5557C47.3884 44.1086 47.4888 43.6186 47.4873 43.1225C47.4873 42.2403 47.1693 41.3943 46.6033 40.7705C46.0372 40.1467 45.2696 39.7963 44.469 39.7963ZM22.7102 33.5408H31.72C32.3257 33.6119 32.938 33.5331 33.5125 33.3102C34.087 33.0873 34.6091 32.7259 35.0407 32.2524C35.4723 31.7788 35.8026 31.2048 36.0075 30.5728C36.2123 29.9407 36.2867 29.2663 36.2249 28.5986C36.2866 27.6021 36.1542 26.6024 35.8367 25.6669C35.5192 24.7314 35.024 23.8816 34.3841 23.1743C33.7442 22.467 32.9743 21.9186 32.1264 21.5659C31.2785 21.2132 30.372 21.0643 29.4676 21.1292H24.9626C24.0582 21.0643 23.1517 21.2132 22.3038 21.5659C21.4558 21.9186 20.686 22.467 20.0461 23.1743C19.4062 23.8816 18.911 24.7314 18.5935 25.6669C18.276 26.6024 18.1436 27.6021 18.2052 28.5986C18.1435 29.2663 18.2179 29.9407 18.4227 30.5728C18.6276 31.2048 18.9578 31.7788 19.3895 32.2524C19.8211 32.7259 20.3432 33.0873 20.9177 33.3102C21.4922 33.5331 22.1045 33.6119 22.7102 33.5408ZM27.2151 17.4058C28.2174 17.4058 29.1972 17.0783 30.0307 16.4646C30.8641 15.8509 31.5138 14.9786 31.8974 13.9581C32.281 12.9375 32.3813 11.8144 32.1858 10.7309C31.9902 9.64752 31.5074 8.65248 30.7986 7.87138C30.0898 7.09028 29.1869 6.55817 28.2038 6.34266C27.2207 6.12716 26.2016 6.2378 25.2755 6.66053C24.3495 7.08326 23.5579 7.79922 23.0011 8.7177C22.4442 9.63618 22.147 10.7159 22.147 11.8206C22.1488 13.3034 22.6848 14.7249 23.6373 15.7722C24.5898 16.8196 25.8808 17.4071 27.2264 17.4058H27.2151Z" fill="white"/>
</svg>
